{
	"asset":{
		"generator":"Khronos glTF Blender I/O v4.2.60",
		"version":"2.0"
	},
	"scene":0,
	"scenes":[
		{
			"name":"Scene",
			"nodes":[
				0
			]
		}
	],
	"nodes":[
		{
			"mesh":0,
			"name":"D20"
		}
	],
	"materials":[
		{
			"doubleSided":true,
			"name":"Dice",
			"pbrMetallicRoughness":{
				"baseColorFactor":[
					0.020396774634718895,
					0.020396774634718895,
					0.020396774634718895,
					1
				],
				"metallicFactor":0,
				"roughnessFactor":0.5
			}
		},
		{
			"doubleSided":true,
			"name":"Numbers",
			"pbrMetallicRoughness":{
				"baseColorFactor":[
					0.8002911806106567,
					0.0023507100995630026,
					0.0015895299147814512,
					1
				],
				"metallicFactor":0,
				"roughnessFactor":0.5
			}
		}
	],
	"meshes":[
		{
			"name":"D20",
			"primitives":[
				{
					"attributes":{
						"POSITION":0,
						"NORMAL":1
					},
					"indices":2,
					"material":0
				},
				{
					"attributes":{
						"POSITION":3,
						"NORMAL":4
					},
					"indices":5,
					"material":1
				}
			]
		}
	],
	"accessors":[
		{
			"bufferView":0,
			"componentType":5126,
			"count":8974,
			"max":[
				10.956700325012207,
				12.25,
				10.420499801635742
			],
			"min":[
				-10.956700325012207,
				-12.25,
				-10.420499801635742
			],
			"type":"VEC3"
		},
		{
			"bufferView":1,
			"componentType":5126,
			"count":8974,
			"type":"VEC3"
		},
		{
			"bufferView":2,
			"componentType":5123,
			"count":10599,
			"type":"SCALAR"
		},
		{
			"bufferView":3,
			"componentType":5126,
			"count":2910,
			"max":[
				9.350700378417969,
				9.480299949645996,
				9.633199691772461
			],
			"min":[
				-9.590800285339355,
				-9.632699966430664,
				-9.550600051879883
			],
			"type":"VEC3"
		},
		{
			"bufferView":4,
			"componentType":5126,
			"count":2910,
			"type":"VEC3"
		},
		{
			"bufferView":5,
			"componentType":5123,
			"count":3309,
			"type":"SCALAR"
		}
	],
	"bufferViews":[
		{
			"buffer":0,
			"byteLength":107688,
			"byteOffset":0,
			"target":34962
		},
		{
			"buffer":0,
			"byteLength":107688,
			"byteOffset":107688,
			"target":34962
		},
		{
			"buffer":0,
			"byteLength":21198,
			"byteOffset":215376,
			"target":34963
		},
		{
			"buffer":0,
			"byteLength":34920,
			"byteOffset":236576,
			"target":34962
		},
		{
			"buffer":0,
			"byteLength":34920,
			"byteOffset":271496,
			"target":34962
		},
		{
			"buffer":0,
			"byteLength":6618,
			"byteOffset":306416,
			"target":34963
		}
	],
	"buffers":[
		{
			"byteLength":313036,
			"uri":"D20.bin"
		}
	]
}
